<?xml version="1.0" encoding="utf-8" standalone="yes"?>
<!DOCTYPE svg PUBLIC "-//W3C//DTD SVG 1.1//EN" "http://www.w3.org/Graphics/SVG/1.1/DTD/svg11.dtd">
<svg width="666" height="468" viewBox="0 0 666 468" style="fill:none;stroke:none;fill-rule:evenodd;clip-rule:evenodd;stroke-linecap:round;stroke-linejoin:round;stroke-miterlimit:1.5;" version="1.1" xmlns="http://www.w3.org/2000/svg" xmlns:xlink="http://www.w3.org/1999/xlink"><style class="text-font-style fontImports" data-font-family="Roboto">@import url(https://fonts.googleapis.com/css2?family=Roboto:wght@400;700&amp;amp;display=block);</style><g id="items" style="isolation: isolate"><g id="blend" style="mix-blend-mode: normal"><g id="g-root-cp_0_g-0_1cviowatgr8cv-fill" data-item-order="-229885" transform="translate(20, 248)"></g><g id="g-root-sy_0_Vector_18fp6rutgr954-fill" data-item-order="-229881" transform="translate(563, 248)"></g><g id="g-root-cp_1_g-1_13zvonetgr9xd-fill" data-item-order="-229878" transform="translate(49, 168)"><g id="cp_1_g-1_13zvonetgr9xd-fill-merged" stroke="none" fill="#4e88e7"><g><path d="M10 41C10 23.879 23.879 10 41 10C58.121 10 72 23.879 72 41C72 58.121 58.121 72 41 72C23.879 72 10 58.121 10 41"></path></g></g></g><g id="g-root-cp_1_g-1_1_13zvonetgr9xe-fill" data-item-order="-229873" transform="translate(77, 230)"></g><g id="g-root-cp_2_g-2_v4v5hmtgr7kb-fill" data-item-order="-229868" transform="translate(108, 267)"><g id="cp_2_g-2_v4v5hmtgr7kb-fill-merged" stroke="none" fill="#3cc583"><g><path d="M72 41C72 58.121 58.121 72 41 72C23.879 72 10 58.121 10 41C10 23.879 23.879 10 41 10C58.121 10 72 23.879 72 41"></path></g></g></g><g id="g-root-cp_2_g-2_1_qp1nd6tgr8ck-fill" data-item-order="-229863" transform="translate(137, 245)"></g><g id="g-root-cp_3_g-3_qp1nd6tgr8cl-fill" data-item-order="-229858" transform="translate(169, 168)"><g id="cp_3_g-3_qp1nd6tgr8cl-fill-merged" stroke="none" fill="#e0cb15"><g><path d="M10 41C10 23.879 23.879 10 41 10C58.121 10 72 23.879 72 41C72 58.121 58.121 72 41 72C23.879 72 10 58.121 10 41"></path></g></g></g><g id="g-root-cp_3_g-3_1_hten4atgr95a-fill" data-item-order="-229853" transform="translate(197, 230)"></g><g id="g-root-cp_4_g-4_ddl4zutgr9xj-fill" data-item-order="-229848" transform="translate(229, 266)"><g id="cp_4_g-4_ddl4zutgr9xj-fill-merged" stroke="none" fill="#de8431"><g><path d="M72 41C72 58.121 58.121 72 41 72C23.879 72 10 58.121 10 41C10 23.879 23.879 10 41 10C58.121 10 72 23.879 72 41"></path></g></g></g><g id="g-root-cp_4_g-4_1_ddl4zutgr9xk-fill" data-item-order="-229843" transform="translate(256, 245)"></g><g id="g-root-cp_5_g-5_8ye3yitgr7k1-fill" data-item-order="-229838" transform="translate(289, 168)"><g id="cp_5_g-5_8ye3yitgr7k1-fill-merged" stroke="none" fill="#e55753"><g><path d="M10 41C10 23.879 23.879 10 41 10C58.121 10 72 23.879 72 41C72 58.121 58.121 72 41 72C23.879 72 10 58.121 10 41"></path></g></g></g><g id="g-root-cp_5_g-5_1_2r3pmtgr8cq-fill" data-item-order="-229833" transform="translate(317, 230)"></g><g id="g-root-cp_6_g-6_2r3pmtgr8cr-fill" data-item-order="-229828" transform="translate(349, 266)"><g id="cp_6_g-6_2r3pmtgr8cr-fill-merged" stroke="none" fill="#969696"><g><path d="M72 41C72 58.121 58.121 72 41 72C23.879 72 10 58.121 10 41C10 23.879 23.879 10 41 10C58.121 10 72 23.879 72 41"></path></g></g></g><g id="g-root-cp_6_g-6_1_1uo1nkatgr8xw-fill" data-item-order="-229823" transform="translate(378, 245)"></g><g id="g-root-cp_7_g-7_1uo1nkatgr8xx-fill" data-item-order="-229818" transform="translate(409, 168)"><g id="cp_7_g-7_1uo1nkatgr8xx-fill-merged" stroke="none" fill="#1eabda"><g><path d="M10 41C10 23.879 23.879 10 41 10C58.121 10 72 23.879 72 41C72 58.121 58.121 72 41 72C23.879 72 10 58.121 10 41"></path></g></g></g><g id="g-root-cp_7_g-7_1_1lsenbetgr9qm-fill" data-item-order="-229813" transform="translate(437, 230)"></g><g id="g-root-cp_8_g-8_1lsenbetgr9qn-fill" data-item-order="-229808" transform="translate(469, 266)"><g id="cp_8_g-8_1lsenbetgr9qn-fill-merged" stroke="none" fill="#92bd39"><g><path d="M72 41C72 58.121 58.121 72 41 72C23.879 72 10 58.121 10 41C10 23.879 23.879 10 41 10C58.121 10 72 23.879 72 41"></path></g></g></g><g id="g-root-cp_8_g-8_1_1hd7ma2tgr7d4-fill" data-item-order="-229803" transform="translate(497, 245)"></g><g id="g-root-cp_9_g-9_1hd7ma2tgr7d5-fill" data-item-order="-229798" transform="translate(529, 168)"><g id="cp_9_g-9_1hd7ma2tgr7d5-fill-merged" stroke="none" fill="#4e88e7"><g><path d="M10 41C10 23.879 23.879 10 41 10C58.121 10 72 23.879 72 41C72 58.121 58.121 72 41 72C23.879 72 10 58.121 10 41"></path></g></g></g><g id="g-root-cp_9_g-9_1_1cxe45mtgr85e-fill" data-item-order="-229793" transform="translate(557, 230)"></g><g id="g-root-ic_bott_18egbreth5bm6-fill" data-item-order="0" transform="translate(542, 182)"></g><g id="g-root-ic_half_znt47etgvf9f-fill" data-item-order="0" transform="translate(422, 182)"></g><g id="g-root-ic_airb_1hd7ma2th6n7k-fill" data-item-order="0" transform="translate(302, 182)"></g><g id="g-root-ic_time_1ha38uith2fie-fill" data-item-order="0" transform="translate(182, 182)"></g><g id="g-root-tx__1qbyzyitgr7r9-fill" data-item-order="0" transform="translate(452, 386)"><g id="tx__1qbyzyitgr7r9-fill-merged" stroke="none" fill="#484848"><g><text style="font: 10px Roboto, sans-serif; white-space: pre;" font-size="10px" font-family="Roboto, sans-serif"><tspan x="14.45" y="21.66" dominant-baseline="ideographic">消费者发送“就绪”信</tspan><tspan x="18" y="33.67" dominant-baseline="ideographic">号以恢复正常流量</tspan></text></g></g></g><g id="g-root-tx__znt11mtgr8qt-fill" data-item-order="0" transform="translate(512, 116)"><g id="tx__znt11mtgr8qt-fill-merged" stroke="none" fill="#484848"><g><text style="font: 10px Roboto, sans-serif; white-space: pre;" font-size="10px" font-family="Roboto, sans-serif"><tspan x="13" y="21.66" dominant-baseline="ideographic">生产者提高速率，系</tspan><tspan x="33" y="33.67" dominant-baseline="ideographic">统恢复正常</tspan></text></g></g></g><g id="g-root-tx__1cz9jeytgr75v-fill" data-item-order="0" transform="translate(392, 116)"><g id="tx__1cz9jeytgr75v-fill-merged" stroke="none" fill="#484848"><g><text style="font: 10px Roboto, sans-serif; white-space: pre;" font-size="10px" font-family="Roboto, sans-serif"><tspan x="13" y="21.66" dominant-baseline="ideographic">消费者处理积压，缓</tspan><tspan x="38" y="33.67" dominant-baseline="ideographic">冲区清空</tspan></text></g></g></g><g id="g-root-tx__1qa3kp6tgr8qp-fill" data-item-order="0" transform="translate(272, 116)"><g id="tx__1qa3kp6tgr8qp-fill-merged" stroke="none" fill="#484848"><g><text style="font: 10px Roboto, sans-serif; white-space: pre;" font-size="10px" font-family="Roboto, sans-serif"><tspan x="13" y="21.66" dominant-baseline="ideographic">消费者发送信号以通</tspan><tspan x="38" y="33.67" dominant-baseline="ideographic">知生产者</tspan></text></g></g></g><g id="g-root-tx__4miyytgr7db-fill" data-item-order="0" transform="translate(158, 116)"><g id="tx__4miyytgr7db-fill-merged" stroke="none" fill="#484848"><g><text style="font: 10px Roboto, sans-serif; white-space: pre;" font-size="10px" font-family="Roboto, sans-serif"><tspan x="12" y="21.66" dominant-baseline="ideographic">消费者处理速率下</tspan><tspan x="12" y="33.67" dominant-baseline="ideographic">降，可能由于瓶颈</tspan></text></g></g></g><g id="g-root-tx__mb3ki2tgr85h-fill" data-item-order="0" transform="translate(32, 116)"><g id="tx__mb3ki2tgr85h-fill-merged" stroke="none" fill="#484848"><g><text style="font: 10px Roboto, sans-serif; white-space: pre;" font-size="10px" font-family="Roboto, sans-serif"><tspan x="13" y="21.66" dominant-baseline="ideographic">上游组件开始创建并</tspan><tspan x="38" y="33.67" dominant-baseline="ideographic">发送数据</tspan></text></g></g></g><g id="g-root-tx__143mj62tgr7yk-fill" data-item-order="0" transform="translate(518, 86)"><g id="tx__143mj62tgr7yk-fill-merged" stroke="none" fill="#4e88e7"><g><text style="font: bold 11.7px Roboto, sans-serif; white-space: pre;" font-weight="bold" font-size="11.7px" font-family="Roboto, sans-serif"><tspan x="16.9" y="28.33" dominant-baseline="ideographic">正常流量恢复</tspan></text></g></g></g><g id="g-root-tx__1hegkgatgr9je-fill" data-item-order="0" transform="translate(410, 86)"><g id="tx__1hegkgatgr9je-fill-merged" stroke="none" fill="#1eabda"><g><text style="font: bold 11.7px Roboto, sans-serif; white-space: pre;" font-weight="bold" font-size="11.7px" font-family="Roboto, sans-serif"><tspan x="16.6" y="28.33" dominant-baseline="ideographic">系统恢复</tspan></text></g></g></g><g id="g-root-tx__1upx2tmtgr7yg-fill" data-item-order="0" transform="translate(278, 86)"><g id="tx__1upx2tmtgr7yg-fill-merged" stroke="none" fill="#e55753"><g><text style="font: bold 11.7px Roboto, sans-serif; white-space: pre;" font-weight="bold" font-size="11.7px" font-family="Roboto, sans-serif"><tspan x="16.9" y="28.33" dominant-baseline="ideographic">发送背压信号</tspan></text></g></g></g><g id="g-root-tx__dfgk96tgr8y6-fill" data-item-order="0" transform="translate(152, 86)"><g id="tx__dfgk96tgr8y6-fill-merged" stroke="none" fill="#e0cb15"><g><text style="font: bold 11.7px Roboto, sans-serif; white-space: pre;" font-weight="bold" font-size="11.7px" font-family="Roboto, sans-serif"><tspan x="17.05" y="28.33" dominant-baseline="ideographic">消费者处理变慢</tspan></text></g></g></g><g id="g-root-tx__qqx2mitgr7d8-fill" data-item-order="0" transform="translate(32, 86)"><g id="tx__qqx2mitgr7d8-fill-merged" stroke="none" fill="#4e88e7"><g><text style="font: bold 11.7px Roboto, sans-serif; white-space: pre;" font-weight="bold" font-size="11.7px" font-family="Roboto, sans-serif"><tspan x="17.05" y="28.33" dominant-baseline="ideographic">生产者生成数据</tspan></text></g></g></g><g id="g-root-tx__141r3wqtgr8y3-fill" data-item-order="0" transform="translate(251, 38)"><g id="tx__141r3wqtgr8y3-fill-merged" stroke="none" fill="#484848"><g><text style="font: bold 20px Roboto, sans-serif; white-space: pre;" font-weight="bold" font-size="20px" font-family="Roboto, sans-serif"><tspan x="12" y="33.33" dominant-baseline="ideographic">背压的逻辑流程</tspan></text></g></g></g><g id="g-root-ic_chec_1cz9jeytgznd2-fill" data-item-order="0" transform="translate(122, 278)"></g><g id="g-root-ic_warn_4gp6kqth3wud-fill" data-item-order="0" transform="translate(242, 278)"></g><g id="g-root-ic_1_hyeiyytgptl2-fill" data-item-order="0" transform="translate(362, 278)"></g><g id="g-root-ic_airb_4g2snetgzoqq-fill" data-item-order="0" transform="translate(482, 278)"></g><g id="g-root-tx__qs60sqtgr9ji-fill" data-item-order="0" transform="translate(98, 356)"><g id="tx__qs60sqtgr9ji-fill-merged" stroke="none" fill="#3cc583"><g><text style="font: bold 11.7px Roboto, sans-serif; white-space: pre;" font-weight="bold" font-size="11.7px" font-family="Roboto, sans-serif"><tspan x="16.9" y="28.33" dominant-baseline="ideographic">消费者已就绪</tspan></text></g></g></g><g id="g-root-tx__hx5hmytgr7y8-fill" data-item-order="0" transform="translate(218, 356)"><g id="tx__hx5hmytgr7y8-fill-merged" stroke="none" fill="#de8431"><g><text style="font: bold 11.7px Roboto, sans-serif; white-space: pre;" font-weight="bold" font-size="11.7px" font-family="Roboto, sans-serif"><tspan x="16.9" y="28.33" dominant-baseline="ideographic">数据开始积压</tspan></text></g></g></g><g id="g-root-tx__4loz9mtgr9j6-fill" data-item-order="0" transform="translate(332, 356)"><g id="tx__4loz9mtgr9j6-fill-merged" stroke="none" fill="#969696"><g><text style="font: bold 11.7px Roboto, sans-serif; white-space: pre;" font-weight="bold" font-size="11.7px" font-family="Roboto, sans-serif"><tspan x="17.05" y="28.33" dominant-baseline="ideographic">生产者做出反应</tspan></text></g></g></g><g id="g-root-tx__1ursi2ytgr6z0-fill" data-item-order="0" transform="translate(458, 356)"><g id="tx__1ursi2ytgr6z0-fill-merged" stroke="none" fill="#92bd39"><g><text style="font: bold 11.7px Roboto, sans-serif; white-space: pre;" font-weight="bold" font-size="11.7px" font-family="Roboto, sans-serif"><tspan x="12.16" y="28.33" dominant-baseline="ideographic">发出“安全”信号</tspan></text></g></g></g><g id="g-root-tx__mcyzretgr75z-fill" data-item-order="0" transform="translate(92, 386)"><g id="tx__mcyzretgr75z-fill-merged" stroke="none" fill="#484848"><g><text style="font: 10px Roboto, sans-serif; white-space: pre;" font-size="10px" font-family="Roboto, sans-serif"><tspan x="13" y="21.66" dominant-baseline="ideographic">下游组件能够以正常</tspan><tspan x="28" y="33.67" dominant-baseline="ideographic">速率处理数据</tspan></text></g></g></g><g id="g-root-tx__91ihe2tgr8qx-fill" data-item-order="0" transform="translate(212, 386)"><g id="tx__91ihe2tgr8qx-fill-merged" stroke="none" fill="#484848"><g><text style="font: 10px Roboto, sans-serif; white-space: pre;" font-size="10px" font-family="Roboto, sans-serif"><tspan x="13" y="21.66" dominant-baseline="ideographic">数据在缓冲区或队列</tspan><tspan x="43" y="33.67" dominant-baseline="ideographic">中堆积</tspan></text></g></g></g><g id="g-root-tx__4loz9mtgr9j7-fill" data-item-order="0" transform="translate(332, 386)"><g id="tx__4loz9mtgr9j7-fill-merged" stroke="none" fill="#484848"><g><text style="font: 10px Roboto, sans-serif; white-space: pre;" font-size="10px" font-family="Roboto, sans-serif"><tspan x="13" y="21.66" dominant-baseline="ideographic">生产者暂停或节流数</tspan><tspan x="43" y="33.67" dominant-baseline="ideographic">据生成</tspan></text></g></g></g><g id="g-root-ic_1_1hgbzpmtgr8jy-fill" data-item-order="0" transform="translate(62, 182)"></g><g id="g-root-cp_0_g-0_1cviowatgr8cv-stroke" data-item-order="-229885" transform="translate(20, 248)"><g id="cp_0_g-0_1cviowatgr8cv-stroke" fill="none" stroke-linecap="round" stroke-linejoin="round" stroke-miterlimit="4" stroke="#484848" stroke-width="2"><g><path d="M 67 10L 10 10M 127.0307 10L 72.9706 10M 187 10L 133 10M 247 10L 192.9701 10M 307 10L 252.9703 10M 367.0306 10L 312.9701 10M 427.0299 10L 373 10M 487 10L 433 10M 547.0297 10L 492.9801 10"></path></g></g></g><g id="g-root-sy_0_Vector_18fp6rutgr954-stroke" data-item-order="-229881" transform="translate(563, 248)"><g id="sy_0_Vector_18fp6rutgr954-stroke" fill="none" stroke-linecap="round" stroke-linejoin="round" stroke-miterlimit="4" stroke="#484848" stroke-width="2"><g><path d="M 65 10L 10 10"></path><path d="M 59 16.5L 65.5 10L 59 3.5" stroke-dasharray="none"></path></g></g></g><g id="g-root-cp_1_g-1_13zvonetgr9xd-stroke" data-item-order="-229878" transform="translate(49, 168)"><g id="cp_1_g-1_13zvonetgr9xd-stroke" fill="none" stroke-linecap="round" stroke-linejoin="round" stroke-miterlimit="4" stroke="#ffffff" stroke-width="2"><g><path d="M 10 41C 10 23.8792 23.8792 10 41 10C 58.1208 10 72 23.8792 72 41C 72 58.1208 58.1208 72 41 72C 23.8792 72 10 58.1208 10 41Z"></path></g></g></g><g id="g-root-cp_1_g-1_1_13zvonetgr9xe-stroke" data-item-order="-229873" transform="translate(77, 230)"><g id="cp_1_g-1_1_13zvonetgr9xe-stroke" fill="none" stroke-linecap="round" stroke-linejoin="round" stroke-miterlimit="4" stroke="#484848" stroke-width="2"><g><path d="M 13 10L 13 25M 16 28C 16 29.6569 14.6568 31 13 31C 11.3431 31 10 29.6569 10 28C 10 26.3431 11.3431 25 13 25C 14.6568 25 16 26.3431 16 28Z"></path></g></g></g><g id="g-root-cp_2_g-2_v4v5hmtgr7kb-stroke" data-item-order="-229868" transform="translate(108, 267)"><g id="cp_2_g-2_v4v5hmtgr7kb-stroke" fill="none" stroke-linecap="round" stroke-linejoin="round" stroke-miterlimit="4" stroke="#ffffff" stroke-width="2"><g><path d="M 72 41C 72 58.1208 58.1208 72 41 72C 23.8792 72 10 58.1208 10 41C 10 23.8792 23.8792 10 41 10C 58.1208 10 72 23.8792 72 41Z"></path></g></g></g><g id="g-root-cp_2_g-2_1_qp1nd6tgr8ck-stroke" data-item-order="-229863" transform="translate(137, 245)"><g id="cp_2_g-2_1_qp1nd6tgr8ck-stroke" fill="none" stroke-linecap="round" stroke-linejoin="round" stroke-miterlimit="4" stroke="#484848" stroke-width="2"><g><path d="M 13 31L 13 16M 16 13C 16 14.6569 14.6568 16 13 16C 11.3431 16 10 14.6569 10 13C 10 11.3431 11.3431 10 13 10C 14.6568 10 16 11.3431 16 13Z"></path></g></g></g><g id="g-root-cp_3_g-3_qp1nd6tgr8cl-stroke" data-item-order="-229858" transform="translate(169, 168)"><g id="cp_3_g-3_qp1nd6tgr8cl-stroke" fill="none" stroke-linecap="round" stroke-linejoin="round" stroke-miterlimit="4" stroke="#ffffff" stroke-width="2"><g><path d="M 10 41C 10 23.8792 23.8792 10 41 10C 58.1208 10 72 23.8792 72 41C 72 58.1208 58.1208 72 41 72C 23.8792 72 10 58.1208 10 41Z"></path></g></g></g><g id="g-root-cp_3_g-3_1_hten4atgr95a-stroke" data-item-order="-229853" transform="translate(197, 230)"><g id="cp_3_g-3_1_hten4atgr95a-stroke" fill="none" stroke-linecap="round" stroke-linejoin="round" stroke-miterlimit="4" stroke="#484848" stroke-width="2"><g><path d="M 13 10L 13 25M 16 28C 16 29.6569 14.6568 31 13 31C 11.3431 31 10 29.6569 10 28C 10 26.3431 11.3431 25 13 25C 14.6568 25 16 26.3431 16 28Z"></path></g></g></g><g id="g-root-cp_4_g-4_ddl4zutgr9xj-stroke" data-item-order="-229848" transform="translate(229, 266)"><g id="cp_4_g-4_ddl4zutgr9xj-stroke" fill="none" stroke-linecap="round" stroke-linejoin="round" stroke-miterlimit="4" stroke="#ffffff" stroke-width="2"><g><path d="M 72 41C 72 58.1208 58.1208 72 41 72C 23.8792 72 10 58.1208 10 41C 10 23.8792 23.8792 10 41 10C 58.1208 10 72 23.8792 72 41Z"></path></g></g></g><g id="g-root-cp_4_g-4_1_ddl4zutgr9xk-stroke" data-item-order="-229843" transform="translate(256, 245)"><g id="cp_4_g-4_1_ddl4zutgr9xk-stroke" fill="none" stroke-linecap="round" stroke-linejoin="round" stroke-miterlimit="4" stroke="#484848" stroke-width="2"><g><path d="M 13 31L 13 16M 16 13C 16 14.6569 14.6568 16 13 16C 11.3431 16 10 14.6569 10 13C 10 11.3431 11.3431 10 13 10C 14.6568 10 16 11.3431 16 13Z"></path></g></g></g><g id="g-root-cp_5_g-5_8ye3yitgr7k1-stroke" data-item-order="-229838" transform="translate(289, 168)"><g id="cp_5_g-5_8ye3yitgr7k1-stroke" fill="none" stroke-linecap="round" stroke-linejoin="round" stroke-miterlimit="4" stroke="#ffffff" stroke-width="2"><g><path d="M 10 41C 10 23.8792 23.8792 10 41 10C 58.1208 10 72 23.8792 72 41C 72 58.1208 58.1208 72 41 72C 23.8792 72 10 58.1208 10 41Z"></path></g></g></g><g id="g-root-cp_5_g-5_1_2r3pmtgr8cq-stroke" data-item-order="-229833" transform="translate(317, 230)"><g id="cp_5_g-5_1_2r3pmtgr8cq-stroke" fill="none" stroke-linecap="round" stroke-linejoin="round" stroke-miterlimit="4" stroke="#484848" stroke-width="2"><g><path d="M 13 10L 13 25M 16 28C 16 29.6569 14.6568 31 13 31C 11.3431 31 10 29.6569 10 28C 10 26.3431 11.3431 25 13 25C 14.6568 25 16 26.3431 16 28Z"></path></g></g></g><g id="g-root-cp_6_g-6_2r3pmtgr8cr-stroke" data-item-order="-229828" transform="translate(349, 266)"><g id="cp_6_g-6_2r3pmtgr8cr-stroke" fill="none" stroke-linecap="round" stroke-linejoin="round" stroke-miterlimit="4" stroke="#ffffff" stroke-width="2"><g><path d="M 72 41C 72 58.1208 58.1208 72 41 72C 23.8792 72 10 58.1208 10 41C 10 23.8792 23.8792 10 41 10C 58.1208 10 72 23.8792 72 41Z"></path></g></g></g><g id="g-root-cp_6_g-6_1_1uo1nkatgr8xw-stroke" data-item-order="-229823" transform="translate(378, 245)"><g id="cp_6_g-6_1_1uo1nkatgr8xw-stroke" fill="none" stroke-linecap="round" stroke-linejoin="round" stroke-miterlimit="4" stroke="#484848" stroke-width="2"><g><path d="M 13 31L 13 16M 16 13C 16 14.6569 14.6568 16 13 16C 11.3431 16 10 14.6569 10 13C 10 11.3431 11.3431 10 13 10C 14.6568 10 16 11.3431 16 13Z"></path></g></g></g><g id="g-root-cp_7_g-7_1uo1nkatgr8xx-stroke" data-item-order="-229818" transform="translate(409, 168)"><g id="cp_7_g-7_1uo1nkatgr8xx-stroke" fill="none" stroke-linecap="round" stroke-linejoin="round" stroke-miterlimit="4" stroke="#ffffff" stroke-width="2"><g><path d="M 10 41C 10 23.8792 23.8792 10 41 10C 58.1208 10 72 23.8792 72 41C 72 58.1208 58.1208 72 41 72C 23.8792 72 10 58.1208 10 41Z"></path></g></g></g><g id="g-root-cp_7_g-7_1_1lsenbetgr9qm-stroke" data-item-order="-229813" transform="translate(437, 230)"><g id="cp_7_g-7_1_1lsenbetgr9qm-stroke" fill="none" stroke-linecap="round" stroke-linejoin="round" stroke-miterlimit="4" stroke="#484848" stroke-width="2"><g><path d="M 13 10L 13 25M 16 28C 16 29.6569 14.6568 31 13 31C 11.3431 31 10 29.6569 10 28C 10 26.3431 11.3431 25 13 25C 14.6568 25 16 26.3431 16 28Z"></path></g></g></g><g id="g-root-cp_8_g-8_1lsenbetgr9qn-stroke" data-item-order="-229808" transform="translate(469, 266)"><g id="cp_8_g-8_1lsenbetgr9qn-stroke" fill="none" stroke-linecap="round" stroke-linejoin="round" stroke-miterlimit="4" stroke="#ffffff" stroke-width="2"><g><path d="M 72 41C 72 58.1208 58.1208 72 41 72C 23.8792 72 10 58.1208 10 41C 10 23.8792 23.8792 10 41 10C 58.1208 10 72 23.8792 72 41Z"></path></g></g></g><g id="g-root-cp_8_g-8_1_1hd7ma2tgr7d4-stroke" data-item-order="-229803" transform="translate(497, 245)"><g id="cp_8_g-8_1_1hd7ma2tgr7d4-stroke" fill="none" stroke-linecap="round" stroke-linejoin="round" stroke-miterlimit="4" stroke="#484848" stroke-width="2"><g><path d="M 13 31L 13 16M 16 13C 16 14.6569 14.6568 16 13 16C 11.3431 16 10 14.6569 10 13C 10 11.3431 11.3431 10 13 10C 14.6568 10 16 11.3431 16 13Z"></path></g></g></g><g id="g-root-cp_9_g-9_1hd7ma2tgr7d5-stroke" data-item-order="-229798" transform="translate(529, 168)"><g id="cp_9_g-9_1hd7ma2tgr7d5-stroke" fill="none" stroke-linecap="round" stroke-linejoin="round" stroke-miterlimit="4" stroke="#ffffff" stroke-width="2"><g><path d="M 10 41C 10 23.8792 23.8792 10 41 10C 58.1208 10 72 23.8792 72 41C 72 58.1208 58.1208 72 41 72C 23.8792 72 10 58.1208 10 41Z"></path></g></g></g><g id="g-root-cp_9_g-9_1_1cxe45mtgr85e-stroke" data-item-order="-229793" transform="translate(557, 230)"><g id="cp_9_g-9_1_1cxe45mtgr85e-stroke" fill="none" stroke-linecap="round" stroke-linejoin="round" stroke-miterlimit="4" stroke="#484848" stroke-width="2"><g><path d="M 13 10L 13 25M 16 28C 16 29.6569 14.6568 31 13 31C 11.3431 31 10 29.6569 10 28C 10 26.3431 11.3431 25 13 25C 14.6568 25 16 26.3431 16 28Z"></path></g></g></g><g id="g-root-ic_bott_18egbreth5bm6-stroke" data-item-order="0" transform="translate(542, 182)"><g id="ic_bott_18egbreth5bm6-stroke" fill="none" stroke-linecap="round" stroke-linejoin="round" stroke-miterlimit="4" stroke="#ffffff" stroke-width="2"><g><path d="M 17.125 11.125L 17.125 14.5L 18.625 19.375L 18.625 28.375C 18.625 29.203428 17.953426 29.875 17.125 29.875L 12.625 29.875C 11.796573 29.875 11.125 29.203428 11.125 28.375L 11.125 19.375L 12.625 14.5L 12.625 11.125M 30.25 11.125L 30.25 14.5L 31.75 19.375L 31.75 28.375C 31.75 29.203428 31.078428 29.875 30.25 29.875L 25.75 29.875C 24.921572 29.875 24.25 29.203428 24.25 28.375L 24.25 19.375L 25.75 14.5L 25.75 11.125M 44.5 11.125L 37.75 11.125M 24.712 17.875L 31.288 17.875M 44.875 28.375C 44.875 29.203428 44.203426 29.875 43.375 29.875L 38.875 29.875C 38.046574 29.875 37.375 29.203428 37.375 28.375L 37.375 19.375L 38.875 14.5L 38.875 11.125L 43.375 11.125L 43.375 14.5L 44.875 19.375ZM 37.837002 17.875L 44.412998 17.875M 39.217003 34.375L 16.484501 34.375C 13.585006 34.375 11.2345 36.72551 11.2345 39.625C 11.2345 42.524494 13.585006 44.875 16.484501 44.875L 39.217003 44.875C 42.116497 44.875 44.467003 42.524494 44.467003 39.625C 44.467003 36.72551 42.116497 34.375 39.217003 34.375ZM 17.3515 41.875L 18.636999 39.625L 17.3515 37.375M 22.441 41.875L 23.7265 39.625L 22.441 37.375M 27.528999 41.875L 28.816 39.625L 27.528999 37.375M 32.6185 41.875L 33.903999 39.625L 32.6185 37.375M 37.708 41.875L 38.9935 39.625L 37.708 37.375"></path></g></g></g><g id="g-root-ic_half_znt47etgvf9f-stroke" data-item-order="0" transform="translate(422, 182)"><g id="ic_half_znt47etgvf9f-stroke" fill="none" stroke-linecap="round" stroke-linejoin="round" stroke-miterlimit="4" stroke="#ffffff" stroke-width="2"><g><path d="M 36.25 21.247C 36.25 23.732283 38.264721 25.747 40.75 25.747C 43.235283 25.747 45.25 23.732283 45.25 21.247C 45.25 18.761719 43.235283 16.747 40.75 16.747C 38.264721 16.747 36.25 18.761719 36.25 21.247ZM 26.5 15.247C 26.5 17.318068 28.178932 18.997 30.25 18.997C 32.321068 18.997 34 17.318068 34 15.247C 34 13.175932 32.321068 11.497 30.25 11.497C 28.178932 11.497 26.5 13.175932 26.5 15.247ZM 16 18.247C 16 20.318068 17.678932 21.997 19.75 21.997C 21.821068 21.997 23.5 20.318068 23.5 18.247C 23.5 16.175932 21.821068 14.497 19.75 14.497C 17.678932 14.497 16 16.175932 16 18.247ZM 11.5 27.247C 11.5 28.903854 12.843145 30.247 14.5 30.247C 16.156855 30.247 17.5 28.903854 17.5 27.247C 17.5 25.590145 16.156855 24.247 14.5 24.247C 12.843145 24.247 11.5 25.590145 11.5 27.247ZM 13.75 36.246998C 13.75 37.903854 15.093145 39.246998 16.75 39.246998C 18.406855 39.246998 19.75 37.903854 19.75 36.246998C 19.75 34.590145 18.406855 33.247002 16.75 33.247002C 15.093145 33.247002 13.75 34.590145 13.75 36.246998ZM 22 42.246998C 22 43.489639 23.007359 44.497002 24.25 44.497002C 25.492641 44.497002 26.5 43.489639 26.5 42.247002C 26.5 41.00436 25.492641 39.997002 24.25 39.997002C 23.007359 39.997002 22 41.00436 22 42.247002ZM 30.8125 42.466C 30.8125 43.294426 31.484072 43.966 32.3125 43.966C 33.140926 43.966 33.8125 43.294426 33.8125 42.466C 33.8125 41.637573 33.140926 40.966 32.3125 40.966C 31.484072 40.966 30.8125 41.637573 30.8125 42.466Z"></path></g></g></g><g id="g-root-ic_airb_1hd7ma2th6n7k-stroke" data-item-order="0" transform="translate(302, 182)"><g id="ic_airb_1hd7ma2th6n7k-stroke" fill="none" stroke-linecap="round" stroke-linejoin="round" stroke-miterlimit="4" stroke="#ffffff" stroke-width="2"><g><path d="M 21.174969 41.574997C 21.174969 43.375 19.674999 44.875 17.875 44.875C 16.075001 44.875 14.574985 43.375 14.574985 41.574997L 14.574985 36.775002C 14.574985 34.974998 16.075001 33.474998 17.875 33.474998C 19.674999 33.474998 21.174969 34.974998 21.174969 36.775002L 21.174969 41.574997ZM 27.924999 41.574997C 27.924999 43.375 26.424999 44.875 24.625 44.875C 22.825001 44.875 21.324986 43.375 21.324986 41.574997L 21.324986 36.775002C 21.324986 34.974998 22.825001 33.474998 24.625 33.474998C 26.424999 33.474998 27.924999 34.974998 27.924999 36.775002L 27.924999 41.574997ZM 14.425015 36.775002L 14.425015 27.775002C 14.425015 24.024971 17.425014 21.024969 21.175014 21.024969C 24.925014 21.024969 27.924999 24.024971 27.924999 27.775002L 27.924999 36.775002M 14.42497 36.625L 11.125 36.625M 27.924999 36.625L 41.125 36.625M 16.224939 33.625L 26.424999 23.425014M 21.174969 20.874969C 23.825935 20.874969 25.974998 18.725935 25.974998 16.07497C 25.974998 13.42399 23.825935 11.274964 21.174969 11.274964C 18.524006 11.274964 16.375 13.42399 16.375 16.07497C 16.375 18.725935 18.524006 20.874969 21.174969 20.874969ZM 38.125 27.625C 41.438652 27.625 44.125 23.931355 44.125 19.375C 44.125 14.818645 41.438652 11.125 38.125 11.125C 34.811348 11.125 32.125 14.818645 32.125 19.375C 32.125 23.931355 34.811348 27.625 38.125 27.625ZM 10 10M 31.375 12.625L 44.875 26.125M 10 10M 44.875 12.625L 31.375 26.125"></path></g></g></g><g id="g-root-ic_time_1ha38uith2fie-stroke" data-item-order="0" transform="translate(182, 182)"><g id="ic_time_1ha38uith2fie-stroke" fill="none" stroke-linecap="round" stroke-linejoin="round" stroke-miterlimit="4" stroke="#ffffff" stroke-width="2"><g><path d="M 10.75 16.75L 40.75 16.75M 14.875 13.375C 14.667893 13.375 14.5 13.542893 14.5 13.75C 14.5 13.957107 14.667893 14.125 14.875 14.125C 15.082107 14.125 15.25 13.957107 15.25 13.75C 15.25 13.542893 15.082107 13.375 14.875 13.375L 14.875 13.375M 18.625 13.375C 18.417892 13.375 18.25 13.542893 18.25 13.75C 18.25 13.957107 18.417892 14.125 18.625 14.125C 18.832108 14.125 19 13.957107 19 13.75C 19 13.542893 18.832108 13.375 18.625 13.375L 18.625 13.375M 22.375 13.375C 22.167892 13.375 22 13.542893 22 13.75C 22 13.957107 22.167892 14.125 22.375 14.125C 22.582108 14.125 22.75 13.957107 22.75 13.75C 22.75 13.542893 22.582108 13.375 22.375 13.375L 22.375 13.375M 22.75 33.25L 13.75 33.25C 12.093145 33.25 10.75 31.906855 10.75 30.25L 10.75 13.75C 10.75 12.093145 12.093145 10.75 13.75 10.75L 37.75 10.75C 39.406857 10.75 40.75 12.093145 40.75 13.75L 40.75 21.25M 27.25 36.25C 27.250002 41.220566 31.279438 45.25 36.25 45.25C 41.220566 45.25 45.25 41.220566 45.25 36.25C 45.25 31.279438 41.220566 27.250002 36.25 27.250002C 31.279438 27.250002 27.250002 31.279438 27.250002 36.25ZM 36.25 30.25L 36.25 36.25L 40.75 36.25M 31.75 24.25L 40.75 24.25M 36.25 27.25L 36.25 24.25"></path></g></g></g><g id="g-root-tx__1qbyzyitgr7r9-stroke" data-item-order="0" transform="translate(452, 386)"></g><g id="g-root-tx__znt11mtgr8qt-stroke" data-item-order="0" transform="translate(512, 116)"></g><g id="g-root-tx__1cz9jeytgr75v-stroke" data-item-order="0" transform="translate(392, 116)"></g><g id="g-root-tx__1qa3kp6tgr8qp-stroke" data-item-order="0" transform="translate(272, 116)"></g><g id="g-root-tx__4miyytgr7db-stroke" data-item-order="0" transform="translate(158, 116)"></g><g id="g-root-tx__mb3ki2tgr85h-stroke" data-item-order="0" transform="translate(32, 116)"></g><g id="g-root-tx__143mj62tgr7yk-stroke" data-item-order="0" transform="translate(518, 86)"></g><g id="g-root-tx__1hegkgatgr9je-stroke" data-item-order="0" transform="translate(410, 86)"></g><g id="g-root-tx__1upx2tmtgr7yg-stroke" data-item-order="0" transform="translate(278, 86)"></g><g id="g-root-tx__dfgk96tgr8y6-stroke" data-item-order="0" transform="translate(152, 86)"></g><g id="g-root-tx__qqx2mitgr7d8-stroke" data-item-order="0" transform="translate(32, 86)"></g><g id="g-root-tx__141r3wqtgr8y3-stroke" data-item-order="0" transform="translate(251, 38)"></g><g id="g-root-ic_chec_1cz9jeytgznd2-stroke" data-item-order="0" transform="translate(122, 278)"><g id="ic_chec_1cz9jeytgznd2-stroke" fill="none" stroke-linecap="round" stroke-linejoin="round" stroke-miterlimit="4" stroke="#ffffff" stroke-width="2"><g><path d="M 40.150002 45.25L 15.85 45.25C 14.558987 45.250496 13.329942 44.696487 12.475343 43.728821C 11.620744 42.761154 11.222914 41.473053 11.383 40.192001L 13.75 21.25L 42.25 21.25L 44.616997 40.192001C 44.777088 41.473053 44.379257 42.761154 43.524658 43.728821C 42.670059 44.696487 41.441013 45.250496 40.150002 45.25ZM 19 17.5L 16.848999 17.5C 16.32222 17.500416 15.834265 17.777132 15.5635 18.229L 13.75 21.25L 42.25 21.25L 40.436501 18.229C 40.165733 17.777132 39.67778 17.500416 39.151001 17.5L 37 17.5M 34 16.75C 34 13.436292 31.313709 10.75 28 10.75C 24.686291 10.75 22 13.436292 22 16.75L 22 21.25L 34 21.25ZM 32.778999 28.096001L 25.804001 35.070999L 23.275002 32.650002C 23.074261 32.45015 22.749741 32.45015 22.549 32.650002L 20.704 34.494999C 20.504148 34.69574 20.504148 35.02026 20.704 35.221001L 25.441 39.849998C 25.641739 40.049854 25.966263 40.049854 26.167 39.849998L 35.349998 30.667C 35.549854 30.466263 35.549854 30.141739 35.349998 29.941002L 33.505001 28.096001C 33.30426 27.896149 32.97974 27.896149 32.778999 28.096001Z"></path></g></g></g><g id="g-root-ic_warn_4gp6kqth3wud-stroke" data-item-order="0" transform="translate(242, 278)"><g id="ic_warn_4gp6kqth3wud-stroke" fill="none" stroke-linecap="round" stroke-linejoin="round" stroke-miterlimit="4" stroke="#ffffff" stroke-width="2"><g><path d="M 10.75 16.751499C 10.75 20.065208 17.129942 22.751501 25 22.751501C 32.870056 22.751501 39.25 20.065208 39.25 16.751499C 39.25 13.437792 32.870056 10.7515 25 10.7515C 17.129942 10.7515 10.75 13.437792 10.75 16.751499ZM 28.581999 28.567001C 19.1635 29.533001 10.75 26.556999 10.75 22.75M 25 35.5C 17.131001 35.5 10.75 32.816502 10.75 29.5M 23.105501 42.197502C 16.132 41.808998 10.75 39.295002 10.75 36.25L 10.75 16.75M 39.25 16.751499L 39.25 25.001501M 36.25 40.751499L 36.25 40.751499M 36.25 40.75C 36.042892 40.75 35.875 40.917892 35.875 41.125C 35.875 41.332108 36.042892 41.5 36.25 41.5C 36.457108 41.5 36.625 41.332108 36.625 41.125C 36.625 40.917892 36.457108 40.75 36.25 40.75M 36.25 37.751499L 36.25 33.251499M 37.507 28.75C 37.259224 28.286013 36.776001 27.99625 36.25 27.99625C 35.723999 27.99625 35.240776 28.286013 34.993 28.75L 27.409 43.201C 27.181095 43.634098 27.198772 44.155338 27.4555 44.571999C 27.714775 44.991367 28.172962 45.246292 28.666002 45.245502L 43.834 45.245499C 44.326668 45.246323 44.784657 44.992073 45.044502 44.573502C 45.301224 44.156837 45.318901 43.635597 45.091 43.202499Z"></path></g></g></g><g id="g-root-ic_1_hyeiyytgptl2-stroke" data-item-order="0" transform="translate(362, 278)"><g id="ic_1_hyeiyytgptl2-stroke" fill="none" stroke-linecap="round" stroke-linejoin="round" stroke-miterlimit="4" stroke="#ffffff" stroke-width="2"><g><path d="M 11.125 41.512001C 11.125 43.583069 12.803932 45.262001 14.875 45.262001L 41.125 45.262001C 43.196068 45.262001 44.875 43.583069 44.875 41.512001C 44.875 39.440933 43.196068 37.762001 41.125 37.762001L 14.875 37.762001C 12.803932 37.762001 11.125 39.440933 11.125 41.512001ZM 39.501999 37.762001L 26.002003 37.762001L 26.002003 26.549501L 39.501999 26.549501ZM 30.502001 26.559999L 35.001999 26.559999L 35.001999 31.059999L 30.502001 31.059999ZM 38.5 41.512001C 38.5 41.926212 38.835785 42.262001 39.25 42.262001C 39.664215 42.262001 40 41.926212 40 41.512001C 40 41.097786 39.664215 40.762001 39.25 40.762001C 38.835785 40.762001 38.5 41.097786 38.5 41.512001M 31 41.512001C 31 41.926212 31.335787 42.262001 31.75 42.262001C 32.164215 42.262001 32.5 41.926212 32.5 41.512001C 32.5 41.097786 32.164215 40.762001 31.75 40.762001C 31.335787 40.762001 31 41.097786 31 41.512001M 23.437 41.512001C 23.437 41.926212 23.772787 42.262001 24.187 42.262001C 24.601213 42.262001 24.937 41.926212 24.937 41.512001C 24.937 41.097786 24.601213 40.762001 24.187 40.762001C 23.772787 40.762001 23.437 41.097786 23.437 41.512001M 15.937 41.512001C 15.937 41.926212 16.272787 42.262001 16.687 42.262001C 17.101213 42.262001 17.437 41.926212 17.437 41.512001C 17.437 41.097786 17.101213 40.762001 16.687 40.762001C 16.272787 40.762001 15.937 41.097786 15.937 41.512001M 13.072001 17.271999L 41.525501 17.271999M 20.601999 10.738L 13.072001 17.271999L 20.601999 23.804501"></path></g></g></g><g id="g-root-ic_airb_4g2snetgzoqq-stroke" data-item-order="0" transform="translate(482, 278)"><g id="ic_airb_4g2snetgzoqq-stroke" fill="none" stroke-linecap="round" stroke-linejoin="round" stroke-miterlimit="4" stroke="#ffffff" stroke-width="2"><g><path d="M 21.099985 41.574997C 21.099985 43.375 19.59997 44.875 17.799969 44.875C 15.999969 44.875 14.5 43.375 14.5 41.574997L 14.5 36.625C 14.5 34.824997 15.999969 33.325001 17.799969 33.325001C 19.59997 33.325001 21.099985 34.824997 21.099985 36.625L 21.099985 41.574997ZM 27.849998 41.574997C 27.849998 43.375 26.349998 44.875 24.549969 44.875C 22.749969 44.875 21.25 43.375 21.25 41.574997L 21.25 36.625C 21.25 34.824997 22.749969 33.325001 24.549969 33.325001C 26.349998 33.325001 27.849998 34.824997 27.849998 36.625L 27.849998 41.574997ZM 14.425015 36.775002L 14.425015 27.775002C 14.425015 24.025061 17.425014 21.025061 21.175014 21.025061C 24.925014 21.025061 27.924999 24.025061 27.924999 27.775002L 27.924999 36.775002M 14.425015 36.625L 11.125 36.625M 27.924999 36.625L 41.125 36.625M 10 10M 16.245819 33.7561L 26.3887 23.461916M 21.175014 20.875061C 23.825981 20.875061 25.974998 18.726025 25.974998 16.07506C 25.974998 13.424095 23.825981 11.275056 21.175014 11.275056C 18.52405 11.275056 16.375 13.424095 16.375 16.07506C 16.375 18.726025 18.52405 20.875061 21.175014 20.875061ZM 38.875 27.625C 42.188652 27.625 44.875 23.931355 44.875 19.375C 44.875 14.818645 42.188652 11.125 38.875 11.125C 35.561348 11.125 32.875 14.818645 32.875 19.375C 32.875 23.931355 35.561348 27.625 38.875 27.625Z"></path></g></g></g><g id="g-root-tx__qs60sqtgr9ji-stroke" data-item-order="0" transform="translate(98, 356)"></g><g id="g-root-tx__hx5hmytgr7y8-stroke" data-item-order="0" transform="translate(218, 356)"></g><g id="g-root-tx__4loz9mtgr9j6-stroke" data-item-order="0" transform="translate(332, 356)"></g><g id="g-root-tx__1ursi2ytgr6z0-stroke" data-item-order="0" transform="translate(458, 356)"></g><g id="g-root-tx__mcyzretgr75z-stroke" data-item-order="0" transform="translate(92, 386)"></g><g id="g-root-tx__91ihe2tgr8qx-stroke" data-item-order="0" transform="translate(212, 386)"></g><g id="g-root-tx__4loz9mtgr9j7-stroke" data-item-order="0" transform="translate(332, 386)"></g><g id="g-root-ic_1_1hgbzpmtgr8jy-stroke" data-item-order="0" transform="translate(62, 182)"><g id="ic_1_1hgbzpmtgr8jy-stroke" fill="none" stroke-linecap="round" stroke-linejoin="round" stroke-miterlimit="4" stroke="#ffffff" stroke-width="2"><g><path d="M 44.875 41.512001C 44.875 43.583069 43.196068 45.262001 41.125 45.262001L 14.875 45.262001C 12.803932 45.262001 11.125 43.583069 11.125 41.512001C 11.125 39.440933 12.803932 37.762001 14.875 37.762001L 41.125 37.762001C 43.196068 37.762001 44.875 39.440933 44.875 41.512001ZM 16.497999 26.548L 29.997999 26.548L 29.997999 37.760498L 16.497999 37.760498ZM 20.997999 26.559999L 25.497999 26.559999L 25.497999 31.059999L 20.997999 31.059999ZM 16 41.512001C 16 41.926212 16.335787 42.262001 16.75 42.262001C 17.164213 42.262001 17.5 41.926212 17.5 41.512001C 17.5 41.097786 17.164213 40.762001 16.75 40.762001C 16.335787 40.762001 16 41.097786 16 41.512001M 23.5 41.512001C 23.5 41.926212 23.835787 42.262001 24.25 42.262001C 24.664213 42.262001 25 41.926212 25 41.512001C 25 41.097786 24.664213 40.762001 24.25 40.762001C 23.835787 40.762001 23.5 41.097786 23.5 41.512001M 31.063 41.512001C 31.063 41.926212 31.398787 42.262001 31.813 42.262001C 32.227211 42.262001 32.563 41.926212 32.563 41.512001C 32.563 41.097786 32.227211 40.762001 31.813 40.762001C 31.398787 40.762001 31.063 41.097786 31.063 41.512001M 38.563 41.512001C 38.563 41.926212 38.898788 42.262001 39.313 42.262001C 39.727211 42.262001 40.063 41.926212 40.063 41.512001C 40.063 41.097786 39.727211 40.762001 39.313 40.762001C 38.898788 40.762001 38.563 41.097786 38.563 41.512001M 42.928001 17.271999L 14.4745 17.271999M 35.397999 10.738L 42.928001 17.271999L 35.397999 23.804501"></path></g></g></g></g></g><path id="w93zxxmuv38qr" d="M65.283 12.757a.35.35 0 0 0 .584.157l5.203-5.141-6.183 3.523.396 1.461zm-2.216-11.7a.35.35 0 0 0-.522.305v3.111l3.276-1.868-2.754-1.548zm3.728 2.105l-4.25 2.421v2.445l6.391-3.644-2.141-1.222zm4.708 3.303a.35.35 0 0 0 0-.609l-1.592-.9-7.365 4.199v1.782a.35.35 0 0 0 .523.305l8.435-4.777z M44.542 2.513c0-.433.355-.783.792-.783s.792.35.792.783-.355.783-.792.783-.792-.35-.792-.783zm59.171 0c0-.433.355-.783.792-.783s.792.35.792.783-.355.783-.792.783-.792-.35-.792-.783zm-85.951 7.636h-1.27v-.487c-.276.201-.864.609-1.881.609-1.202 0-2.274-.794-2.137-2.078.118-1.106 1.153-1.584 1.848-1.727l2.17-.345c0-.539-.29-.956-1.064-1.006s-1.21.305-1.571 1.017l-1.124-.605c1.218-2.631 5.029-1.764 5.029.414v4.207zm-1.27-2.86c.006.396-.062 1.112-.819 1.59-.587.37-1.841.299-1.903-.395-.049-.555.461-.791.906-.898l1.816-.297zm72.662 2.86h-1.27v-.487c-.276.201-.864.609-1.881.609-1.202 0-2.274-.794-2.137-2.078.118-1.106 1.153-1.584 1.848-1.727l2.17-.345c0-.539-.29-.956-1.064-1.006s-1.21.305-1.571 1.017l-1.124-.605c1.218-2.631 5.029-1.764 5.029.414v4.207zm-1.27-2.86c.006.396-.062 1.112-.82 1.59-.587.37-1.841.299-1.903-.395-.049-.555.461-.791.906-.898l1.816-.297zM99.096 10.149H97.85v-8.45h1.246v4.895l2.68-2.559h1.738l-2.633 2.535 2.715 3.578h-1.556l-2.077-2.707-.867.844v1.863zm6.053-6.114h-1.255v6.113h1.255V4.035zm-59.2 0h-1.255v6.113h1.255V4.035zm5.584 6.113V1.697h1.255v2.695c.361-.346 1-.485 1.47-.485 1.452 0 2.477 1.082 2.457 2.448v3.792h-1.27v-3.68c0-.408-.214-1.339-1.315-1.339-.968 0-1.342.756-1.342 1.339v3.681h-1.255zm-4.76-4.894V4.039h.621a.45.45 0 0 0 .45-.45v-.855h1.251v1.305h1.309v1.215h-1.309v3.109c0 .293.105.664.648.664.365 0 .531-.035.736-.07v1.137s-.361.113-.857.113c-1.398 0-1.777-1.051-1.777-1.788V5.254h-1.071zM36.528 4.039h-1.394l2.191 6.106h1.125l1.234-3.918 1.238 3.918h1.129l2.188-6.106h-1.383l-1.359 3.93-1.256-3.93h-1.124l-1.242 3.957-1.348-3.957zM26.212 7.141c-.02 1.566 1.187 3.129 3.223 3.129 1.566 0 2.383-.918 2.734-1.719L31.172 8c-.315.399-.801 1.094-1.738 1.094-1.145 0-1.825-.781-1.891-1.52h4.625c.074-.284.148-.995-.03-1.559-.336-1.064-1.221-2.102-2.839-2.102s-3.088 1.152-3.088 3.227zm1.363-.75h3.348c-.055-.43-.566-1.301-1.623-1.301a1.79 1.79 0 0 0-1.725 1.301zm-8.758.75c.038 1.758 1.277 3.133 3.145 3.133 1.074 0 1.723-.477 1.961-.672v.547h1.242V1.703h-1.258v2.888c-.414-.36-1.062-.68-1.93-.68-1.91 0-3.198 1.473-3.16 3.23zm1.309-.08c0 1.119.723 1.978 1.836 1.978a1.88 1.88 0 0 0 1.94-1.904c0-1.371-1.011-1.99-1.972-1.99s-1.805.798-1.805 1.916zm76.683-.028C96.771 5.275 95.532 3.9 93.664 3.9c-1.074 0-1.723.477-1.961.672v-.547h-1.242v8.22h1.258V9.583c.414.36 1.063.68 1.93.68 1.91 0 3.198-1.473 3.16-3.23zm-1.309.08c0-1.119-.723-1.978-1.836-1.978a1.88 1.88 0 0 0-1.94 1.904c0 1.371 1.011 1.99 1.972 1.99S95.5 8.231 95.5 7.113zM106.441 10.173V4.036h1.254v.382c.361-.346 1-.485 1.47-.485 1.452 0 2.477 1.082 2.457 2.448v3.792h-1.27V6.492c0-.408-.214-1.339-1.315-1.339-.969 0-1.342.756-1.342 1.339v3.681h-1.254zm-30.383-.021V1.824h1.084l4.215 5.777V1.824h1.32v8.328h-1.094l-4.207-5.796v5.796h-1.319zM5.24 10.149H4V2.377h1.014l2.664 3.597 2.654-3.592h1.03v7.766h-1.256V4.762L7.678 8.068 5.24 4.742v5.407z" transform="translate(530, 434)" fill="#80808088" stroke="none"></path></svg>